<svg width="27" height="28" viewBox="0 0 27 28" fill="none" xmlns="http://www.w3.org/2000/svg">
<path d="M14.704 0.668144C15.677 0.664411 16.65 0.67419 17.6227 0.697478L17.8813 0.706811C18.18 0.717478 18.4747 0.730811 18.8307 0.746811C20.2493 0.813478 21.2173 1.03748 22.0667 1.36681C22.9467 1.70548 23.688 2.16414 24.4293 2.90548C25.1072 3.57162 25.6318 4.37741 25.9667 5.26681C26.296 6.11614 26.52 7.08548 26.5867 8.50414C26.6027 8.85881 26.616 9.15481 26.6267 9.45348L26.6347 9.71214C26.6584 10.6844 26.6686 11.6569 26.6653 12.6295L26.6667 13.6241V15.3708C26.67 16.3438 26.6597 17.3168 26.636 18.2895L26.628 18.5481C26.6173 18.8468 26.604 19.1415 26.588 19.4975C26.5213 20.9161 26.2947 21.8841 25.9667 22.7335C25.6329 23.6238 25.1081 24.4303 24.4293 25.0961C23.7626 25.7739 22.9564 26.2985 22.0667 26.6335C21.2173 26.9628 20.2493 27.1868 18.8307 27.2535C18.4747 27.2695 18.18 27.2828 17.8813 27.2935L17.6227 27.3015C16.65 27.3252 15.677 27.3354 14.704 27.3321L13.7093 27.3335H11.964C10.991 27.3368 10.018 27.3265 9.04534 27.3028L8.78667 27.2948C8.47015 27.2833 8.1537 27.27 7.83734 27.2548C6.41867 27.1881 5.45067 26.9615 4.60001 26.6335C3.71025 26.2993 2.90432 25.7746 2.23867 25.0961C1.56007 24.4299 1.03497 23.6236 0.700006 22.7335C0.370673 21.8841 0.146673 20.9161 0.0800063 19.4975C0.0651569 19.1811 0.0518234 18.8647 0.0400064 18.5481L0.0333399 18.2895C0.00875797 17.3168 -0.00235434 16.3438 6.39487e-06 15.3708V12.6295C-0.00371489 11.6569 0.00606393 10.6844 0.0293398 9.71214L0.0386731 9.45348C0.0493398 9.15481 0.0626731 8.85881 0.0786731 8.50414C0.14534 7.08414 0.36934 6.11748 0.698673 5.26681C1.03384 4.37697 1.55996 3.5714 2.24001 2.90681C2.9052 2.22781 3.71062 1.70224 4.60001 1.36681C5.45067 1.03748 6.41734 0.813478 7.83734 0.746811L8.78667 0.706811L9.04534 0.700145C10.0176 0.675575 10.9901 0.664463 11.9627 0.666811L14.704 0.668144ZM13.3333 7.33481C12.45 7.32232 11.573 7.48551 10.7533 7.8149C9.9336 8.14429 9.18754 8.63332 8.55847 9.25355C7.9294 9.87379 7.42987 10.6129 7.08892 11.4278C6.74797 12.2428 6.57239 13.1174 6.57239 14.0008C6.57239 14.8842 6.74797 15.7588 7.08892 16.5738C7.42987 17.3888 7.9294 18.1278 8.55847 18.7481C9.18754 19.3683 9.9336 19.8573 10.7533 20.1867C11.573 20.5161 12.45 20.6793 13.3333 20.6668C15.1014 20.6668 16.7971 19.9644 18.0474 18.7142C19.2976 17.4639 20 15.7683 20 14.0001C20 12.232 19.2976 10.5363 18.0474 9.2861C16.7971 8.03586 15.1014 7.33481 13.3333 7.33481ZM13.3333 10.0015C13.8647 9.99169 14.3926 10.0879 14.8864 10.2844C15.3802 10.481 15.8298 10.7739 16.209 11.1462C16.5883 11.5185 16.8896 11.9626 17.0953 12.4526C17.301 12.9426 17.4069 13.4687 17.407 14.0001C17.4071 14.5316 17.3013 15.0577 17.0958 15.5478C16.8903 16.0378 16.5891 16.4821 16.21 16.8545C15.8309 17.2269 15.3813 17.52 14.8876 17.7167C14.394 17.9134 13.866 18.0098 13.3347 18.0001C12.2738 18.0001 11.2564 17.5787 10.5062 16.8286C9.7561 16.0784 9.33467 15.061 9.33467 14.0001C9.33467 12.9393 9.7561 11.9219 10.5062 11.1717C11.2564 10.4216 12.2738 10.0001 13.3347 10.0001L13.3333 10.0015ZM20.3333 5.33481C19.9032 5.35203 19.4964 5.53501 19.1981 5.84544C18.8999 6.15587 18.7333 6.56966 18.7333 7.00014C18.7333 7.43063 18.8999 7.84442 19.1981 8.15485C19.4964 8.46528 19.9032 8.64826 20.3333 8.66548C20.7754 8.66548 21.1993 8.48988 21.5119 8.17732C21.8244 7.86476 22 7.44084 22 6.99881C22 6.55678 21.8244 6.13286 21.5119 5.8203C21.1993 5.50774 20.7754 5.33214 20.3333 5.33214V5.33481Z" fill="white"/>
</svg>
