<svg width="155" height="19" viewBox="0 0 155 19" fill="none" xmlns="http://www.w3.org/2000/svg">
<path d="M0.16 18V15.36H3.688V3.12H0.16V0.48H10.24V3.12H6.712V15.36H10.24V18H0.16ZM14.2386 18V4.8H17.1666V7.32H17.9826L17.1666 8.016C17.1666 6.928 17.4786 6.08 18.1026 5.472C18.7426 4.864 19.6146 4.56 20.7186 4.56C22.0146 4.56 23.0466 4.992 23.8146 5.856C24.5986 6.72 24.9906 7.88 24.9906 9.336V18H21.9906V9.648C21.9906 8.848 21.7826 8.232 21.3666 7.8C20.9506 7.368 20.3666 7.152 19.6146 7.152C18.8786 7.152 18.2946 7.376 17.8626 7.824C17.4466 8.272 17.2386 8.912 17.2386 9.744V18H14.2386ZM31.7013 18V8.976H28.0773V6.264H31.7013V4.272C31.7013 3.12 32.0853 2.2 32.8533 1.512C33.6213 0.823999 34.6373 0.48 35.9013 0.48H39.7653V3.12H35.9733C35.5893 3.12 35.2773 3.232 35.0373 3.456C34.8133 3.664 34.7013 3.952 34.7013 4.32V6.264H39.7653V8.976H34.7013V18H31.7013ZM50.3879 18C49.5239 18 48.7639 17.824 48.1079 17.472C47.4679 17.12 46.9639 16.624 46.5959 15.984C46.2279 15.328 46.0439 14.576 46.0439 13.728V3.192H41.8199V0.48H49.0439V13.728C49.0439 14.208 49.1799 14.592 49.4519 14.88C49.7399 15.152 50.1239 15.288 50.6039 15.288H54.5879V18H50.3879ZM62.7625 18.24C61.0825 18.24 59.7625 17.776 58.8025 16.848C57.8425 15.904 57.3625 14.624 57.3625 13.008V4.8H60.3625V12.984C60.3625 13.832 60.5705 14.488 60.9865 14.952C61.4025 15.4 61.9945 15.624 62.7625 15.624C63.5145 15.624 64.0985 15.4 64.5145 14.952C64.9465 14.488 65.1625 13.832 65.1625 12.984V4.8H68.1625V13.008C68.1625 14.624 67.6745 15.904 66.6985 16.848C65.7225 17.776 64.4105 18.24 62.7625 18.24ZM77.1771 18.24C76.0571 18.24 75.0811 18.024 74.2491 17.592C73.4171 17.16 72.7691 16.56 72.3051 15.792C71.8571 15.008 71.6331 14.096 71.6331 13.056V9.744C71.6331 8.704 71.8571 7.8 72.3051 7.032C72.7691 6.248 73.4171 5.64 74.2491 5.208C75.0811 4.776 76.0571 4.56 77.1771 4.56C78.2811 4.56 79.2411 4.776 80.0571 5.208C80.8891 5.64 81.5291 6.248 81.9771 7.032C82.4411 7.8 82.6731 8.704 82.6731 9.744V12.12H74.5371V13.056C74.5371 13.984 74.7611 14.688 75.2091 15.168C75.6571 15.632 76.3211 15.864 77.2011 15.864C77.8731 15.864 78.4171 15.752 78.8331 15.528C79.2491 15.288 79.5131 14.944 79.6251 14.496H82.5771C82.3531 15.632 81.7451 16.544 80.7531 17.232C79.7771 17.904 78.5851 18.24 77.1771 18.24ZM79.7691 10.44V9.72C79.7691 8.808 79.5531 8.112 79.1211 7.632C78.6891 7.136 78.0411 6.888 77.1771 6.888C76.3131 6.888 75.6571 7.136 75.2091 7.632C74.7611 8.128 74.5371 8.832 74.5371 9.744V10.248L79.9851 10.2L79.7691 10.44ZM86.1918 18V4.8H89.1198V7.32H89.9358L89.1198 8.016C89.1198 6.928 89.4318 6.08 90.0558 5.472C90.6958 4.864 91.5678 4.56 92.6718 4.56C93.9678 4.56 94.9998 4.992 95.7678 5.856C96.5518 6.72 96.9438 7.88 96.9438 9.336V18H93.9438V9.648C93.9438 8.848 93.7358 8.232 93.3198 7.8C92.9038 7.368 92.3198 7.152 91.5678 7.152C90.8318 7.152 90.2478 7.376 89.8158 7.824C89.3998 8.272 89.1918 8.912 89.1918 9.744V18H86.1918ZM106.006 18.24C104.886 18.24 103.902 18.032 103.054 17.616C102.222 17.184 101.574 16.584 101.11 15.816C100.646 15.032 100.414 14.112 100.414 13.056V9.744C100.414 8.672 100.646 7.752 101.11 6.984C101.574 6.216 102.222 5.624 103.054 5.208C103.902 4.776 104.886 4.56 106.006 4.56C107.67 4.56 108.998 4.992 109.99 5.856C110.982 6.704 111.502 7.864 111.55 9.336H108.55C108.502 8.648 108.254 8.12 107.806 7.752C107.374 7.368 106.774 7.176 106.006 7.176C105.206 7.176 104.574 7.4 104.11 7.848C103.646 8.28 103.414 8.904 103.414 9.72V13.056C103.414 13.872 103.646 14.504 104.11 14.952C104.574 15.4 105.206 15.624 106.006 15.624C106.774 15.624 107.374 15.44 107.806 15.072C108.254 14.688 108.502 14.152 108.55 13.464H111.55C111.502 14.936 110.982 16.104 109.99 16.968C108.998 17.816 107.67 18.24 106.006 18.24ZM120.349 18.24C119.229 18.24 118.253 18.024 117.421 17.592C116.589 17.16 115.941 16.56 115.477 15.792C115.029 15.008 114.805 14.096 114.805 13.056V9.744C114.805 8.704 115.029 7.8 115.477 7.032C115.941 6.248 116.589 5.64 117.421 5.208C118.253 4.776 119.229 4.56 120.349 4.56C121.453 4.56 122.413 4.776 123.229 5.208C124.061 5.64 124.701 6.248 125.149 7.032C125.613 7.8 125.845 8.704 125.845 9.744V12.12H117.709V13.056C117.709 13.984 117.933 14.688 118.381 15.168C118.829 15.632 119.493 15.864 120.373 15.864C121.045 15.864 121.589 15.752 122.005 15.528C122.421 15.288 122.685 14.944 122.797 14.496H125.749C125.525 15.632 124.917 16.544 123.925 17.232C122.949 17.904 121.757 18.24 120.349 18.24ZM122.941 10.44V9.72C122.941 8.808 122.725 8.112 122.293 7.632C121.861 7.136 121.213 6.888 120.349 6.888C119.485 6.888 118.829 7.136 118.381 7.632C117.933 8.128 117.709 8.832 117.709 9.744V10.248L123.157 10.2L122.941 10.44ZM129.772 18V4.8H132.604V7.32H133.348L132.46 8.856C132.46 7.432 132.78 6.36 133.42 5.64C134.06 4.92 135.004 4.56 136.252 4.56C137.676 4.56 138.796 5 139.612 5.88C140.428 6.76 140.836 7.976 140.836 9.528V10.488H137.692V9.744C137.692 8.896 137.468 8.24 137.02 7.776C136.588 7.312 135.988 7.08 135.22 7.08C134.436 7.08 133.828 7.312 133.396 7.776C132.98 8.24 132.772 8.896 132.772 9.744V18H129.772ZM148.602 18.216C147.594 18.216 146.714 18.056 145.962 17.736C145.21 17.416 144.618 16.976 144.186 16.416C143.77 15.84 143.546 15.168 143.514 14.4H146.514C146.546 14.816 146.746 15.152 147.114 15.408C147.498 15.664 147.994 15.792 148.602 15.792H149.658C150.394 15.792 150.946 15.648 151.314 15.36C151.682 15.072 151.866 14.68 151.866 14.184C151.866 13.72 151.698 13.36 151.362 13.104C151.042 12.832 150.538 12.656 149.85 12.576L148.218 12.336C146.714 12.128 145.61 11.728 144.906 11.136C144.202 10.544 143.85 9.656 143.85 8.472C143.85 7.24 144.266 6.288 145.098 5.616C145.93 4.928 147.154 4.584 148.77 4.584H149.682C151.154 4.584 152.33 4.912 153.21 5.568C154.09 6.224 154.562 7.104 154.626 8.208H151.626C151.578 7.856 151.378 7.568 151.026 7.344C150.69 7.12 150.242 7.008 149.682 7.008H148.77C148.082 7.008 147.578 7.136 147.258 7.392C146.954 7.632 146.802 7.992 146.802 8.472C146.802 8.92 146.938 9.256 147.21 9.48C147.482 9.688 147.922 9.84 148.53 9.936L150.234 10.176C151.802 10.4 152.954 10.824 153.69 11.448C154.442 12.056 154.818 12.96 154.818 14.16C154.818 15.44 154.378 16.44 153.498 17.16C152.634 17.864 151.354 18.216 149.658 18.216H148.602Z" fill="white" fill-opacity="0.8"/>
</svg>
