<svg width="36" height="36" viewBox="0 0 36 36" fill="none" xmlns="http://www.w3.org/2000/svg">
<rect width="36" height="36" rx="18" fill="#EEE8FC"/>
<path d="M24 14.25H12C11.1716 14.25 10.5 14.9216 10.5 15.75V23.25C10.5 24.0784 11.1716 24.75 12 24.75H24C24.8284 24.75 25.5 24.0784 25.5 23.25V15.75C25.5 14.9216 24.8284 14.25 24 14.25Z" stroke="#7043E3" stroke-width="1.5" stroke-linecap="round" stroke-linejoin="round"/>
<path d="M21 24.75V12.75C21 12.3522 20.842 11.9706 20.5607 11.6893C20.2794 11.408 19.8978 11.25 19.5 11.25H16.5C16.1022 11.25 15.7206 11.408 15.4393 11.6893C15.158 11.9706 15 12.3522 15 12.75V24.75" stroke="#7043E3" stroke-width="1.5" stroke-linecap="round" stroke-linejoin="round"/>
</svg>
