<svg width="36" height="36" viewBox="0 0 36 36" fill="none" xmlns="http://www.w3.org/2000/svg">
<rect width="36" height="36" rx="18" fill="#EEE8FC"/>
<path d="M22.5 11.25C21.9033 11.25 21.331 11.4871 20.909 11.909C20.4871 12.331 20.25 12.9033 20.25 13.5V22.5C20.25 23.0967 20.4871 23.669 20.909 24.091C21.331 24.5129 21.9033 24.75 22.5 24.75C23.0967 24.75 23.669 24.5129 24.091 24.091C24.5129 23.669 24.75 23.0967 24.75 22.5C24.75 21.9033 24.5129 21.331 24.091 20.909C23.669 20.4871 23.0967 20.25 22.5 20.25H13.5C12.9033 20.25 12.331 20.4871 11.909 20.909C11.4871 21.331 11.25 21.9033 11.25 22.5C11.25 23.0967 11.4871 23.669 11.909 24.091C12.331 24.5129 12.9033 24.75 13.5 24.75C14.0967 24.75 14.669 24.5129 15.091 24.091C15.5129 23.669 15.75 23.0967 15.75 22.5V13.5C15.75 12.9033 15.5129 12.331 15.091 11.909C14.669 11.4871 14.0967 11.25 13.5 11.25C12.9033 11.25 12.331 11.4871 11.909 11.909C11.4871 12.331 11.25 12.9033 11.25 13.5C11.25 14.0967 11.4871 14.669 11.909 15.091C12.331 15.5129 12.9033 15.75 13.5 15.75H22.5C23.0967 15.75 23.669 15.5129 24.091 15.091C24.5129 14.669 24.75 14.0967 24.75 13.5C24.75 12.9033 24.5129 12.331 24.091 11.909C23.669 11.4871 23.0967 11.25 22.5 11.25Z" stroke="#7043E3" stroke-width="1.5" stroke-linecap="round" stroke-linejoin="round"/>
</svg>
