<svg width="61" height="28" viewBox="0 0 61 28" fill="none" xmlns="http://www.w3.org/2000/svg">
<path d="M12.9084 2.13916C13.3633 1.24793 14.6367 1.24793 15.0916 2.13917L17.9134 7.66857C18.0915 8.01749 18.4256 8.26026 18.8125 8.32178L24.9432 9.29683C25.9314 9.45399 26.3249 10.6651 25.6179 11.3731L21.2311 15.7655C20.9543 16.0427 20.8266 16.4355 20.8877 16.8224L21.8549 22.9545C22.0108 23.9428 20.9805 24.6913 20.0887 24.2377L14.5557 21.4229C14.2065 21.2453 13.7935 21.2453 13.4443 21.4229L7.91132 24.2377C7.0195 24.6913 5.98925 23.9428 6.14514 22.9545L7.11233 16.8224C7.17336 16.4355 7.04573 16.0427 6.76891 15.7655L2.38213 11.3731C1.67506 10.6651 2.06859 9.45399 3.05676 9.29683L9.18752 8.32178C9.57439 8.26026 9.90853 8.01749 10.0866 7.66857L12.9084 2.13916Z" fill="url(#paint0_linear_501_1421)"/>
<path d="M32.8629 18.6991V16.5194L38.3281 7.90933H40.2074V10.9264H39.0952L35.6499 16.3788V16.4811H43.4162V18.6991H32.8629ZM39.1463 21.0002V18.0343L39.1974 17.0691V7.90933H41.7926V21.0002H39.1463ZM46.6314 21.1664C46.2095 21.1664 45.8473 21.0173 45.5447 20.719C45.2464 20.4164 45.0973 20.0542 45.0973 19.6323C45.0973 19.2147 45.2464 18.8568 45.5447 18.5585C45.8473 18.2602 46.2095 18.111 46.6314 18.111C47.0405 18.111 47.3984 18.2602 47.7053 18.5585C48.0121 18.8568 48.1655 19.2147 48.1655 19.6323C48.1655 19.9136 48.093 20.1714 47.9482 20.4058C47.8075 20.6359 47.6222 20.8213 47.392 20.9619C47.1619 21.0983 46.9084 21.1664 46.6314 21.1664ZM54.7924 21.1792C53.8379 21.1792 52.9877 21.0152 52.242 20.687C51.5005 20.3546 50.9146 19.8987 50.4842 19.3191C50.0581 18.7353 49.8386 18.062 49.8258 17.2992H52.6127C52.6298 17.6189 52.7342 17.9001 52.926 18.143C53.122 18.3816 53.3819 18.567 53.7058 18.6991C54.0297 18.8312 54.394 18.8973 54.7988 18.8973C55.2207 18.8973 55.5936 18.8227 55.9174 18.6735C56.2413 18.5244 56.4949 18.3177 56.6781 18.0535C56.8613 17.7893 56.9529 17.4846 56.9529 17.1394C56.9529 16.79 56.8549 16.4811 56.6589 16.2126C56.4672 15.9399 56.1902 15.7268 55.8279 15.5734C55.47 15.42 55.0439 15.3433 54.5495 15.3433H53.3287V13.3106H54.5495C54.9672 13.3106 55.3358 13.2382 55.6554 13.0933C55.9792 12.9484 56.2306 12.7481 56.4096 12.4924C56.5886 12.2325 56.6781 11.9299 56.6781 11.5848C56.6781 11.2566 56.5993 10.969 56.4416 10.7218C56.2882 10.4704 56.0708 10.2744 55.7896 10.1338C55.5126 9.99314 55.1887 9.92283 54.818 9.92283C54.443 9.92283 54.1 9.99101 53.7889 10.1274C53.4778 10.2595 53.2285 10.4491 53.041 10.6963C52.8535 10.9434 52.7534 11.2332 52.7406 11.5656H50.0879C50.1007 10.8113 50.3159 10.1466 50.7335 9.57127C51.1511 8.99598 51.7136 8.54641 52.421 8.22254C53.1326 7.89442 53.9359 7.73036 54.8308 7.73036C55.7342 7.73036 56.5247 7.89442 57.2022 8.22254C57.8798 8.55067 58.4061 8.99385 58.7811 9.55209C59.1603 10.1061 59.3478 10.7282 59.3436 11.4186C59.3478 12.1515 59.1199 12.763 58.6596 13.2531C58.2037 13.7431 57.6092 14.0542 56.8762 14.1863V14.2886C57.8393 14.4122 58.5723 14.7467 59.0751 15.2921C59.5822 15.8333 59.8336 16.5109 59.8294 17.3248C59.8336 18.0706 59.6184 18.7332 59.1838 19.3127C58.7534 19.8923 58.1589 20.3483 57.4004 20.6806C56.6419 21.013 55.7725 21.1792 54.7924 21.1792Z" fill="#26174E"/>
<defs>
<linearGradient id="paint0_linear_501_1421" x1="14" y1="0.000244141" x2="14" y2="28.0002" gradientUnits="userSpaceOnUse">
<stop stop-color="#FFEA2B"/>
<stop offset="1" stop-color="#E69B0B" stop-opacity="0.58"/>
</linearGradient>
</defs>
</svg>
