<svg width="38" height="38" viewBox="0 0 38 38" fill="none" xmlns="http://www.w3.org/2000/svg">
<path d="M19.1413 19.142C30.8212 25.5823 33.8776 31.4768 32.3494 32.5684C30.8212 33.5508 25.2541 30.2761 19.1413 19.142C12.5919 31.0402 6.69741 33.9874 5.715 32.2409C4.84174 30.6035 8.22561 25.1457 19.1413 19.142C7.78898 12.8109 4.62342 7.13473 5.82415 5.82484C7.13404 4.62411 12.8102 7.78967 19.1413 19.142C25.0358 8.44462 30.4937 5.06074 32.1311 5.71569C34.0959 6.47979 31.2578 12.4834 19.1413 19.142Z" fill="#CE3640"/>
<path d="M19.1413 19.142C22.8463 31.9549 20.8399 38.2842 18.9874 37.9754C17.2121 37.5895 15.5908 31.3374 19.1413 19.142C6.09693 22.9241 -0.154671 20.8402 0.385629 18.9105C0.925931 17.1352 7.17753 15.6687 19.1413 19.142C15.5908 6.63792 17.3665 0.385902 19.1418 0.308716C20.9171 0.385902 22.6919 6.63792 19.1413 19.142C30.8736 15.7459 37.1261 17.2124 37.8208 18.8333C38.6698 20.763 32.4173 23.0013 19.1413 19.142Z" fill="#CE3640"/>
</svg>
