<svg width="692" height="363" viewBox="0 0 692 363" fill="none" xmlns="http://www.w3.org/2000/svg">
<path fill-rule="evenodd" clip-rule="evenodd" d="M1048.9 -285.444C1048.42 -285.595 1048.42 -285.595 1048.42 -285.593L1048.42 -285.587L1048.41 -285.562L1048.37 -285.457C1048.34 -285.364 1048.3 -285.224 1048.23 -285.038C1048.11 -284.666 1047.91 -284.109 1047.65 -283.376C1047.11 -281.91 1046.29 -279.736 1045.13 -276.912C1042.8 -271.265 1039.12 -263.018 1033.7 -252.633C1022.86 -231.862 1005.06 -202.538 977.228 -168.349C921.571 -99.9717 825.795 -12.1248 665.342 65.6761C504.883 143.48 338.548 183.366 212.32 203.8C149.207 214.016 96.1256 219.369 58.8235 222.168C40.1725 223.568 25.4667 224.328 15.4247 224.739C10.4037 224.945 6.54871 225.063 3.94952 225.13C2.64993 225.163 1.66429 225.184 1.00383 225.196C0.673604 225.202 0.424673 225.206 0.258443 225.208L0.0712984 225.211L0.0245739 225.211L0.0129813 225.212C0.0104635 225.212 0.00925749 225.212 0.014947 225.712C0.0206373 226.212 0.0220588 226.212 0.0247929 226.212L0.0368176 226.211L0.0844088 226.211L0.273298 226.208C0.440696 226.206 0.690805 226.202 1.02222 226.195C1.68505 226.183 2.67311 226.163 3.97516 226.129C6.57926 226.063 10.4394 225.944 15.4656 225.739C25.5181 225.327 40.2352 224.566 58.8983 223.165C96.2243 220.365 149.335 215.008 212.48 204.787C338.766 184.344 505.203 144.437 665.779 66.5759C826.361 -11.288 922.253 -99.2259 978.004 -167.717C1005.88 -201.962 1023.72 -231.343 1034.59 -252.17C1040.02 -262.583 1043.72 -270.857 1046.05 -276.531C1047.22 -279.368 1048.05 -281.556 1048.59 -283.035C1048.86 -283.775 1049.05 -284.337 1049.18 -284.716C1049.24 -284.905 1049.29 -285.048 1049.32 -285.145L1049.36 -285.254L1049.37 -285.282L1049.37 -285.289C1049.37 -285.291 1049.37 -285.292 1048.9 -285.444ZM1057.92 -276.49C1057.92 -276.491 1057.92 -276.492 1058.4 -276.34C1058.87 -276.189 1058.87 -276.187 1058.87 -276.186L1058.87 -276.178L1058.86 -276.15L1058.82 -276.041C1058.79 -275.945 1058.74 -275.802 1058.68 -275.612C1058.55 -275.234 1058.36 -274.671 1058.09 -273.931C1057.55 -272.452 1056.72 -270.265 1055.55 -267.428C1053.22 -261.754 1049.52 -253.479 1044.09 -243.066C1033.22 -222.24 1015.38 -192.859 987.504 -158.614C931.753 -90.1224 835.861 -2.18446 675.279 75.6794C514.703 153.54 348.266 193.447 221.98 213.89C158.835 224.112 105.724 229.468 68.3983 232.269C49.7352 233.669 35.0181 234.431 24.9656 234.842C19.9394 235.048 16.0793 235.166 13.4752 235.233C12.1731 235.266 11.1851 235.287 10.5222 235.299C10.1908 235.305 9.9407 235.309 9.7733 235.312L9.58441 235.314L9.53682 235.315L9.52479 235.315C9.52206 235.315 9.52064 235.315 9.51495 234.815C9.50926 234.315 9.51046 234.315 9.51298 234.315L9.52458 234.315L9.5713 234.314L9.75844 234.312C9.92467 234.309 10.1736 234.305 10.5038 234.299C11.1643 234.287 12.1499 234.267 13.4495 234.233C16.0487 234.167 19.9037 234.049 24.9247 233.843C34.9667 233.432 49.6725 232.671 68.3235 231.272C105.626 228.473 158.707 223.12 221.82 212.903C348.048 192.469 514.383 152.584 674.842 74.7796C835.295 -3.02132 931.071 -90.8682 986.728 -159.245C1014.56 -193.435 1032.36 -222.759 1043.2 -243.529C1048.62 -253.914 1052.3 -262.161 1054.63 -267.809C1055.79 -270.632 1056.61 -272.806 1057.15 -274.273C1057.41 -275.006 1057.61 -275.562 1057.73 -275.934C1057.8 -276.12 1057.84 -276.261 1057.87 -276.354L1057.91 -276.458L1057.92 -276.484L1057.92 -276.49ZM1067.88 -267.24C1067.41 -267.392 1067.41 -267.392 1067.41 -267.39L1067.4 -267.384L1067.4 -267.359L1067.36 -267.254C1067.33 -267.161 1067.29 -267.021 1067.22 -266.835C1067.1 -266.462 1066.9 -265.906 1066.64 -265.173C1066.1 -263.707 1065.28 -261.533 1064.12 -258.709C1061.79 -253.062 1058.11 -244.815 1052.69 -234.429C1041.85 -213.659 1024.05 -184.335 996.217 -150.146C940.559 -81.7686 844.783 6.07829 684.331 83.8792C523.871 161.683 357.536 201.569 231.308 222.003C168.196 232.219 115.114 237.572 77.8118 240.371C59.1608 241.771 44.455 242.532 34.413 242.943C29.392 243.148 25.537 243.266 22.9378 243.333C21.6382 243.366 20.6526 243.387 19.9921 243.399C19.6619 243.405 19.413 243.409 19.2467 243.411L19.0596 243.414L19.0129 243.415L19.0013 243.415C18.9987 243.415 18.9975 243.415 19.0032 243.915C19.0089 244.415 19.0103 244.415 19.0131 244.415L19.0251 244.415L19.0727 244.414L19.2616 244.411C19.429 244.409 19.6791 244.405 20.0105 244.399C20.6733 244.386 21.6614 244.366 22.9634 244.333C25.5675 244.266 29.4276 244.148 34.4539 243.942C44.5064 243.53 59.2235 242.769 77.8866 241.368C115.213 238.568 168.323 233.212 231.468 222.99C357.754 202.547 524.191 162.64 684.767 84.7791C845.35 6.91515 941.241 -81.0228 996.992 -149.514C1024.87 -183.759 1042.71 -213.14 1053.58 -233.967C1059.01 -244.38 1062.71 -252.654 1065.04 -258.328C1066.21 -261.165 1067.04 -263.352 1067.58 -264.832C1067.84 -265.571 1068.04 -266.134 1068.17 -266.513C1068.2 -266.606 1068.23 -266.688 1068.25 -266.758C1068.28 -266.831 1068.3 -266.893 1068.31 -266.942L1068.35 -267.051L1068.36 -267.079L1068.36 -267.086C1068.36 -267.088 1068.36 -267.089 1067.88 -267.24ZM1076.9 -258.291C1076.9 -258.292 1076.9 -258.292 1077.38 -258.141C1077.85 -257.989 1077.85 -257.988 1077.85 -257.986L1077.85 -257.979L1077.84 -257.951L1077.8 -257.842C1077.77 -257.746 1077.73 -257.602 1077.66 -257.413C1077.53 -257.035 1077.34 -256.472 1077.07 -255.732C1076.53 -254.253 1075.7 -252.066 1074.53 -249.229C1072.2 -243.555 1068.5 -235.28 1063.07 -224.867C1052.2 -204.041 1034.36 -174.66 1006.48 -140.415C950.734 -71.9232 854.842 16.0147 694.259 93.8787C533.684 171.739 367.246 211.646 240.96 232.089C177.815 242.311 124.705 247.667 87.3788 250.468C68.7157 251.868 53.9986 252.63 43.9461 253.041C38.9198 253.247 35.0597 253.365 32.4556 253.432C31.1536 253.465 30.1655 253.486 29.5027 253.498L29.231 253.503C29.0311 253.507 28.8719 253.509 28.7538 253.511L28.5649 253.513L28.5173 253.514L28.5053 253.514C28.5025 253.514 28.5011 253.514 28.4954 253.014C28.4897 252.514 28.4909 252.514 28.4935 252.514L28.505 252.514L28.5518 252.514L28.7389 252.511C28.9051 252.508 29.1541 252.504 29.4843 252.498C30.1448 252.486 31.1304 252.466 32.43 252.432C35.0292 252.366 38.8842 252.248 43.9052 252.042C53.9472 251.631 68.653 250.87 87.304 249.471C124.606 246.672 177.688 241.319 240.8 231.102C367.028 210.669 533.364 170.783 693.823 92.9788C854.276 15.1779 950.051 -72.6689 1005.71 -141.046C1033.54 -175.235 1051.34 -204.56 1062.18 -225.33C1067.6 -235.715 1071.28 -243.962 1073.61 -249.609C1074.77 -252.433 1075.6 -254.607 1076.13 -256.073C1076.39 -256.807 1076.59 -257.363 1076.71 -257.735C1076.78 -257.921 1076.82 -258.061 1076.85 -258.154L1076.89 -258.259L1076.9 -258.285L1076.9 -258.291ZM1086.87 -249.037C1086.4 -249.189 1086.4 -249.188 1086.39 -249.187L1086.39 -249.181L1086.38 -249.155L1086.35 -249.051C1086.32 -248.958 1086.27 -248.818 1086.21 -248.632C1086.08 -248.259 1085.89 -247.703 1085.62 -246.97C1085.09 -245.503 1084.27 -243.33 1083.11 -240.506C1080.78 -234.858 1077.1 -226.612 1071.68 -216.226C1060.84 -195.456 1043.03 -166.132 1015.2 -131.942C959.547 -63.5654 863.772 24.2814 703.319 102.082C542.86 179.887 376.524 219.772 250.296 240.206C187.184 250.422 134.102 255.775 96.8 258.574C78.1491 259.974 63.4433 260.735 53.4013 261.146C48.3803 261.351 44.5253 261.469 41.9261 261.536C40.6265 261.569 39.6408 261.59 38.9804 261.602C38.6502 261.608 38.4012 261.612 38.235 261.614L38.0479 261.617L38.0011 261.618L37.9895 261.618C37.987 261.618 37.9858 261.618 37.9915 262.118C37.9972 262.618 37.9986 262.618 38.0014 262.618L38.0134 262.618L38.061 262.617L38.2499 262.614C38.3671 262.613 38.525 262.61 38.7229 262.607L38.9988 262.602C39.6616 262.59 40.6497 262.569 41.9517 262.536C44.5558 262.469 48.4159 262.351 53.4422 262.145C63.4946 261.733 78.2118 260.972 96.8749 259.572C134.201 256.771 187.311 251.415 250.456 241.193C376.742 220.75 543.18 180.843 703.755 102.982C864.338 25.1183 960.23 -62.8197 1015.98 -131.311C1043.86 -165.556 1061.69 -194.937 1072.56 -215.764C1078 -226.177 1081.69 -234.451 1084.03 -240.125C1085.2 -242.962 1086.03 -245.149 1086.56 -246.629C1086.83 -247.368 1087.03 -247.931 1087.16 -248.31C1087.22 -248.499 1087.27 -248.642 1087.3 -248.739L1087.34 -248.848L1087.35 -248.876L1087.35 -248.883C1087.35 -248.885 1087.35 -248.886 1086.87 -249.037ZM1095.96 -240.063C1096.02 -240.043 1096.14 -240.006 1096.36 -239.936C1096.84 -239.784 1096.84 -239.783 1096.84 -239.781L1096.83 -239.774L1096.82 -239.746L1096.79 -239.637C1096.76 -239.541 1096.71 -239.397 1096.65 -239.208C1096.52 -238.829 1096.32 -238.267 1096.05 -237.527C1095.52 -236.048 1094.69 -233.861 1093.52 -231.024C1091.18 -225.349 1087.49 -217.075 1082.05 -206.662C1071.18 -185.836 1053.34 -156.455 1025.47 -122.21C969.718 -53.7181 873.826 34.2198 713.244 112.084C552.668 189.944 386.23 229.852 259.944 250.295C196.8 260.516 143.689 265.872 106.363 268.673C87.7001 270.073 72.9829 270.835 62.9304 271.246C57.9042 271.452 54.0441 271.57 51.44 271.637C50.1379 271.671 49.1499 271.691 48.4871 271.703C48.1556 271.709 47.9055 271.713 47.7381 271.716L47.5493 271.719L47.5017 271.719L47.4896 271.719C47.4869 271.719 47.4855 271.719 47.4798 271.219C47.4741 270.719 47.4753 270.719 47.4778 270.719L47.4894 270.719L47.5361 270.719L47.7233 270.716L47.9669 270.712C48.1053 270.71 48.2727 270.707 48.4687 270.704C49.1291 270.691 50.1148 270.671 51.4144 270.638C54.0136 270.571 57.8686 270.453 62.8895 270.247C72.9315 269.836 87.6374 269.075 106.288 267.676C143.59 264.877 196.672 259.524 259.785 249.307C386.013 228.874 552.348 188.988 712.807 111.184C873.26 33.383 969.036 -54.4639 1024.69 -122.841C1052.52 -157.03 1070.32 -186.354 1081.17 -207.125C1086.59 -217.51 1090.27 -225.757 1092.59 -231.404C1093.76 -234.228 1094.58 -236.402 1095.11 -237.868C1095.38 -238.601 1095.57 -239.158 1095.7 -239.53C1095.76 -239.716 1095.81 -239.856 1095.84 -239.949L1095.87 -240.054L1095.88 -240.08L1095.88 -240.086C1095.88 -240.086 1095.88 -240.087 1095.96 -240.063ZM1105.86 -230.834C1105.38 -230.986 1105.38 -230.985 1105.38 -230.984L1105.38 -230.978L1105.37 -230.952L1105.34 -230.848C1105.31 -230.755 1105.26 -230.615 1105.2 -230.428C1105.07 -230.056 1104.88 -229.5 1104.61 -228.767C1104.08 -227.3 1103.26 -225.126 1102.09 -222.303C1099.77 -216.655 1096.09 -208.408 1090.67 -198.023C1079.82 -177.253 1062.02 -147.929 1034.19 -113.739C978.536 -45.3623 882.76 42.4845 722.307 120.285C561.848 198.09 395.513 237.975 269.285 258.409C206.172 268.625 153.09 273.979 115.788 276.778C97.1374 278.177 82.4315 278.938 72.3896 279.349C67.3686 279.554 63.5136 279.672 60.9144 279.739C59.6148 279.772 58.6291 279.793 57.9687 279.805L57.5921 279.812L57.3858 279.815L57.2233 279.818L57.0361 279.82L56.9894 279.821L56.9778 279.821C56.9753 279.821 56.9741 279.821 56.9798 280.321C56.9855 280.821 56.9869 280.821 56.9896 280.821L57.0017 280.821L57.0493 280.82L57.2381 280.817L57.4133 280.815L57.5774 280.812C57.6962 280.81 57.8328 280.808 57.9871 280.805C58.6499 280.793 59.638 280.772 60.94 280.739C63.5441 280.672 67.4042 280.554 72.4304 280.348C82.4829 279.937 97.2001 279.175 115.863 277.775C153.189 274.974 206.3 269.618 269.444 259.396C395.73 238.953 562.168 199.046 722.744 121.185C883.326 43.3214 979.218 -44.6166 1034.97 -113.108C1062.84 -147.353 1080.68 -176.734 1091.55 -197.56C1096.99 -207.974 1100.68 -216.248 1103.02 -221.922C1104.19 -224.759 1105.02 -226.946 1105.55 -228.425C1105.82 -229.165 1106.02 -229.728 1106.14 -230.106C1106.18 -230.197 1106.2 -230.277 1106.23 -230.346L1106.27 -230.488L1106.29 -230.535L1106.32 -230.645L1106.33 -230.673L1106.34 -230.68C1106.34 -230.682 1106.34 -230.683 1105.86 -230.834ZM1114.87 -221.883C1114.87 -221.884 1114.87 -221.884 1115.35 -221.733C1115.5 -221.684 1115.6 -221.651 1115.67 -221.629L1115.75 -221.605C1115.79 -221.592 1115.81 -221.585 1115.82 -221.582L1115.82 -221.579C1115.82 -221.579 1115.82 -221.579 1115.82 -221.578L1115.82 -221.571L1115.81 -221.543L1115.78 -221.434L1115.77 -221.402L1115.73 -221.278L1115.68 -221.153L1115.63 -221.005C1115.5 -220.626 1115.31 -220.064 1115.04 -219.324C1114.5 -217.845 1113.67 -215.658 1112.51 -212.82C1110.17 -207.146 1106.48 -198.872 1101.04 -188.459C1090.17 -167.633 1072.33 -138.251 1044.46 -104.007C988.706 -35.515 892.814 52.4229 732.232 130.287C571.656 208.147 405.219 248.055 278.933 268.498C215.788 278.719 162.677 284.076 125.351 286.876C106.688 288.277 91.9712 289.038 81.9187 289.45C76.8925 289.655 73.0324 289.774 70.4283 289.84C69.1262 289.874 68.1382 289.894 67.4753 289.906C67.1439 289.913 66.8938 289.917 66.7264 289.919L66.5375 289.922L66.4899 289.922L66.4779 289.922C66.4773 289.922 66.4768 289.922 66.4762 289.917C66.476 289.914 66.4757 289.91 66.4754 289.903L66.4746 289.881C66.4741 289.864 66.4736 289.838 66.473 289.802C66.4718 289.729 66.4702 289.611 66.4681 289.423C66.4624 288.923 66.4636 288.923 66.4661 288.922L66.4777 288.922L66.5244 288.922L66.7116 288.919C66.8778 288.917 67.1267 288.913 67.457 288.907C68.1174 288.894 69.1031 288.874 70.4026 288.841C73.0018 288.774 76.8568 288.656 81.8778 288.45C91.9198 288.039 106.626 287.279 125.277 285.879C162.579 283.08 215.661 277.727 278.773 267.511C405.001 247.077 571.336 207.191 731.796 129.387C892.248 51.5861 988.024 -36.2607 1043.68 -104.638C1071.51 -138.827 1089.31 -168.151 1100.15 -188.922C1105.58 -199.307 1109.26 -207.554 1111.58 -213.201C1112.74 -216.025 1113.57 -218.199 1114.1 -219.665C1114.37 -220.398 1114.56 -220.955 1114.69 -221.327C1114.75 -221.513 1114.8 -221.653 1114.83 -221.746L1114.86 -221.851L1114.87 -221.876L1114.87 -221.883ZM1124.85 -212.629C1124.37 -212.781 1124.37 -212.78 1124.37 -212.779L1124.37 -212.773L1124.36 -212.747L1124.33 -212.643C1124.3 -212.55 1124.25 -212.409 1124.19 -212.223C1124.06 -211.851 1123.87 -211.295 1123.6 -210.562C1123.07 -209.095 1122.24 -206.921 1121.08 -204.098C1118.76 -198.45 1115.08 -190.203 1109.65 -179.818C1098.81 -159.048 1081.01 -129.724 1053.18 -95.5343C997.524 -27.1572 901.748 60.6896 741.296 138.491C580.836 216.295 414.501 256.18 288.273 276.614C225.161 286.83 172.079 292.184 134.777 294.983C116.126 296.382 101.42 297.143 91.3778 297.554C86.3568 297.759 82.5018 297.878 79.9026 297.944C78.603 297.977 77.6174 297.998 76.957 298.01C76.6267 298.016 76.3778 298.02 76.2116 298.023L76.0244 298.025L75.9777 298.026L75.9661 298.026C75.9651 298.026 75.9643 298.026 75.9641 298.06C75.9639 298.077 75.964 298.105 75.9643 298.147C75.9648 298.22 75.9659 298.338 75.9681 298.526C75.9738 299.026 75.9752 299.026 75.9779 299.026L75.9899 299.026L76.0375 299.025L76.2264 299.023C76.3938 299.02 76.6439 299.016 76.9753 299.01C77.6382 298.998 78.6262 298.977 79.9283 298.944C82.5324 298.877 86.3925 298.759 91.4187 298.553C101.471 298.142 116.188 297.38 134.851 295.98C172.177 293.179 225.288 287.823 288.433 277.601C414.719 257.158 581.156 217.251 741.732 139.39C902.314 61.5265 998.206 -26.4115 1053.96 -94.903C1081.83 -129.148 1099.67 -158.529 1110.54 -179.355C1115.98 -189.768 1119.67 -198.043 1122.01 -203.717C1123.17 -206.554 1124 -208.741 1124.54 -210.22C1124.81 -210.96 1125 -211.523 1125.13 -211.901C1125.2 -212.091 1125.25 -212.234 1125.28 -212.33L1125.31 -212.439L1125.32 -212.467L1125.32 -212.475C1125.32 -212.477 1125.32 -212.478 1124.85 -212.629ZM1134.24 -203.559L1134.34 -203.53C1134.81 -203.378 1134.81 -203.377 1134.81 -203.375L1134.81 -203.368L1134.8 -203.34L1134.77 -203.231C1134.73 -203.134 1134.69 -202.991 1134.62 -202.802C1134.49 -202.423 1134.3 -201.86 1134.03 -201.121C1133.49 -199.641 1132.66 -197.454 1131.5 -194.617C1129.16 -188.943 1125.47 -180.669 1120.03 -170.256C1109.16 -149.429 1091.32 -120.048 1063.45 -85.8034C1007.69 -17.3119 911.803 70.6261 751.22 148.49C590.644 226.351 424.207 266.258 297.921 286.701C234.776 296.922 181.666 302.279 144.34 305.079C125.677 306.48 110.959 307.241 100.907 307.653C95.8808 307.858 92.0207 307.977 89.4166 308.043C88.1145 308.077 87.1265 308.097 86.4636 308.11C86.1322 308.116 85.8821 308.12 85.7147 308.122L85.5258 308.125L85.4782 308.125L85.4662 308.126C85.4635 308.126 85.462 308.126 85.4564 307.626C85.4507 307.126 85.4519 307.126 85.4544 307.126L85.466 307.125L85.5127 307.125L85.6998 307.122L85.8758 307.12C86.0262 307.117 86.2162 307.114 86.4452 307.11C87.1057 307.098 88.0913 307.077 89.3909 307.044C91.9901 306.977 95.8451 306.859 100.866 306.654C110.908 306.243 125.614 305.482 144.265 304.082C181.567 301.283 234.649 295.93 297.761 285.714C423.989 265.28 590.324 225.394 750.784 147.59C911.237 69.7892 1007.01 -18.0576 1062.67 -86.4347C1090.5 -120.624 1108.3 -149.948 1119.14 -170.719C1124.56 -181.104 1128.25 -189.351 1130.57 -194.998C1131.73 -197.822 1132.56 -199.996 1133.09 -201.462C1133.35 -202.195 1133.55 -202.752 1133.67 -203.124C1133.74 -203.31 1133.78 -203.45 1133.82 -203.543L1133.85 -203.648L1133.86 -203.673L1133.86 -203.679C1133.86 -203.68 1133.86 -203.681 1134.24 -203.559ZM1143.83 -194.428C1143.35 -194.579 1143.35 -194.579 1143.35 -194.578L1143.35 -194.572L1143.34 -194.546L1143.31 -194.442L1143.28 -194.349L1143.25 -194.28C1143.23 -194.207 1143.2 -194.121 1143.17 -194.022C1143.04 -193.65 1142.85 -193.094 1142.58 -192.36C1142.05 -190.894 1141.23 -188.72 1140.06 -185.896C1137.74 -180.249 1134.06 -172.002 1128.64 -161.617C1117.79 -140.847 1099.99 -111.523 1072.16 -77.3331C1016.5 -8.95605 920.729 78.8908 760.276 156.692C599.817 234.496 433.481 274.382 307.253 294.815C244.141 305.032 191.059 310.385 153.757 313.184C135.106 314.583 120.4 315.344 110.358 315.755C105.337 315.961 101.482 316.079 98.8831 316.145C97.5835 316.179 96.5979 316.199 95.9374 316.211L95.6612 316.216L95.4444 316.22L95.192 316.224L95.0049 316.226L94.9582 316.227L94.9466 316.227C94.9441 316.227 94.9428 316.227 94.9485 316.727C94.9503 316.88 94.9516 316.986 94.9527 317.06C94.9552 317.227 94.9565 317.227 94.9584 317.227L94.9704 317.227L95.018 317.226L95.2069 317.224C95.3743 317.221 95.6244 317.217 95.9558 317.211C96.6186 317.199 97.6067 317.178 98.9088 317.145C101.513 317.078 105.373 316.96 110.399 316.754C120.452 316.343 135.169 315.581 153.832 314.181C191.158 311.38 244.268 306.024 307.413 295.802C433.699 275.359 600.137 235.452 760.712 157.592C921.295 79.7276 1017.19 -8.21032 1072.94 -76.7018C1100.81 -110.947 1118.65 -140.328 1129.52 -161.154C1134.96 -171.567 1138.65 -179.842 1140.99 -185.516C1142.16 -188.353 1142.98 -190.54 1143.52 -192.019C1143.79 -192.759 1143.99 -193.322 1144.11 -193.7C1144.15 -193.808 1144.18 -193.902 1144.21 -193.98C1144.23 -194.038 1144.24 -194.088 1144.26 -194.129L1144.29 -194.238L1144.3 -194.266L1144.3 -194.274C1144.31 -194.275 1144.31 -194.276 1143.83 -194.428ZM1152.85 -185.478C1152.85 -185.478 1152.85 -185.479 1152.85 -185.477C1152.86 -185.476 1152.86 -185.474 1152.88 -185.47C1152.92 -185.456 1153.04 -185.42 1153.33 -185.328C1153.8 -185.177 1153.8 -185.176 1153.8 -185.174L1153.8 -185.167L1153.79 -185.139L1153.75 -185.03C1153.72 -184.933 1153.67 -184.79 1153.61 -184.601C1153.48 -184.222 1153.29 -183.659 1153.02 -182.92C1152.48 -181.44 1151.65 -179.253 1150.48 -176.416C1148.15 -170.742 1144.45 -162.468 1139.02 -152.055C1128.15 -131.228 1110.31 -101.847 1082.43 -67.6022C1026.68 0.889309 930.791 88.8272 770.208 166.691C609.633 244.552 443.195 284.459 316.909 304.902C253.764 315.124 200.654 320.48 163.328 323.281C144.665 324.681 129.948 325.442 119.895 325.854C114.869 326.06 111.009 326.178 108.405 326.245C107.103 326.278 106.115 326.299 105.452 326.311C105.12 326.317 104.87 326.321 104.703 326.323L104.514 326.326L104.467 326.327L104.454 326.327C104.454 326.327 104.453 326.327 104.452 326.317C104.452 326.311 104.452 326.302 104.451 326.288L104.45 326.239C104.449 326.17 104.447 326.047 104.445 325.827C104.439 325.327 104.44 325.327 104.443 325.327L104.454 325.327L104.501 325.326L104.688 325.323C104.854 325.321 105.103 325.317 105.434 325.311C106.094 325.299 107.08 325.278 108.379 325.245C110.978 325.178 114.833 325.06 119.854 324.855C129.896 324.444 144.602 323.683 163.253 322.283C200.555 319.484 253.637 314.131 316.749 303.915C442.977 283.481 609.313 243.596 769.772 165.791C930.225 87.9904 1026 0.143573 1081.66 -68.2335C1109.49 -102.423 1127.29 -131.747 1138.13 -152.517C1143.55 -162.903 1147.23 -171.149 1149.56 -176.797C1150.72 -179.621 1151.54 -181.794 1152.08 -183.261C1152.34 -183.994 1152.54 -184.55 1152.66 -184.923C1152.73 -185.109 1152.77 -185.249 1152.8 -185.342L1152.84 -185.446L1152.85 -185.472L1152.85 -185.478ZM1162.81 -176.227C1162.34 -176.378 1162.34 -176.378 1162.34 -176.377L1162.33 -176.371L1162.33 -176.345L1162.29 -176.24C1162.28 -176.2 1162.26 -176.151 1162.24 -176.094L1162.21 -175.988L1162.15 -175.821C1162.02 -175.449 1161.83 -174.892 1161.57 -174.159C1161.03 -172.693 1160.21 -170.519 1159.05 -167.695C1156.72 -162.048 1153.04 -153.801 1147.62 -143.416C1136.78 -122.645 1118.98 -93.3213 1091.15 -59.1319C1035.49 9.24511 939.713 97.092 779.26 174.893C618.801 252.697 452.466 292.583 326.238 313.016C263.125 323.233 210.044 328.586 172.741 331.385C154.09 332.784 139.385 333.545 129.343 333.956C124.322 334.162 120.467 334.28 117.867 334.346C116.568 334.38 115.582 334.4 114.922 334.412C114.592 334.419 114.343 334.423 114.176 334.425L113.989 334.428L113.943 334.428L113.931 334.428C113.928 334.428 113.927 334.428 113.933 334.928C113.939 335.428 113.94 335.428 113.943 335.428L113.955 335.428L114.002 335.428L114.191 335.425C114.359 335.422 114.609 335.418 114.94 335.412C115.603 335.4 116.591 335.38 117.893 335.346C120.497 335.279 124.357 335.161 129.384 334.955C139.436 334.544 154.153 333.782 172.816 332.382C210.142 329.581 263.253 324.225 326.397 314.004C452.684 293.561 619.121 253.653 779.697 175.793C940.279 97.9288 1036.17 9.99084 1091.92 -58.5007C1119.8 -92.7456 1137.63 -122.127 1148.51 -142.953C1153.94 -153.366 1157.64 -161.64 1159.97 -167.315C1161.14 -170.152 1161.97 -172.339 1162.51 -173.818C1162.77 -174.558 1162.97 -175.12 1163.1 -175.499C1163.13 -175.603 1163.16 -175.693 1163.19 -175.769C1163.21 -175.831 1163.23 -175.885 1163.24 -175.928L1163.28 -176.037L1163.29 -176.065L1163.29 -176.072C1163.29 -176.073 1163.29 -176.073 1163.28 -176.075C1163.28 -176.076 1163.28 -176.078 1163.27 -176.081C1163.25 -176.087 1163.22 -176.098 1163.16 -176.117L1162.99 -176.172L1162.81 -176.227ZM1171.84 -167.273C1171.84 -167.274 1171.84 -167.275 1172.31 -167.123C1172.58 -167.038 1172.7 -167.001 1172.75 -166.984C1172.79 -166.97 1172.79 -166.97 1172.79 -166.969L1172.79 -166.962L1172.78 -166.934L1172.74 -166.824C1172.71 -166.728 1172.66 -166.585 1172.6 -166.396C1172.47 -166.017 1172.27 -165.454 1172.01 -164.715C1171.47 -163.235 1170.64 -161.048 1169.47 -158.211C1167.14 -152.537 1163.44 -144.263 1158.01 -133.85C1147.13 -113.023 1129.3 -83.642 1101.42 -49.3971C1045.67 19.0944 949.779 107.032 789.197 184.896C628.621 262.757 462.184 302.664 335.897 323.107C272.753 333.329 219.642 338.685 182.316 341.486C163.653 342.886 148.936 343.647 138.884 344.059C133.857 344.265 129.997 344.383 127.393 344.45C126.091 344.483 125.103 344.504 124.44 344.516C124.109 344.522 123.859 344.526 123.691 344.528L123.502 344.531L123.455 344.532L123.443 344.532C123.44 344.532 123.439 344.532 123.433 344.032C123.43 343.747 123.429 343.625 123.429 343.572L123.429 343.549L123.429 343.542C123.43 343.532 123.43 343.532 123.431 343.532L123.443 343.532L123.489 343.531L123.676 343.529C123.843 343.526 124.092 343.522 124.422 343.516C125.082 343.504 126.068 343.483 127.367 343.45C129.967 343.383 133.822 343.265 138.843 343.06C148.885 342.649 163.59 341.888 182.241 340.488C219.544 337.689 272.625 332.336 335.738 322.12C461.966 301.686 628.301 261.801 788.76 183.996C949.213 106.195 1044.99 18.3486 1100.65 -50.0284C1128.48 -84.2178 1146.28 -113.542 1157.12 -134.312C1162.54 -144.697 1166.22 -152.944 1168.55 -158.592C1169.71 -161.416 1170.53 -163.589 1171.07 -165.056C1171.33 -165.789 1171.52 -166.345 1171.65 -166.718C1171.71 -166.904 1171.76 -167.044 1171.79 -167.137L1171.83 -167.241L1171.83 -167.267L1171.84 -167.273ZM1181.8 -158.024C1181.33 -158.175 1181.33 -158.175 1181.32 -158.174L1181.32 -158.167L1181.31 -158.142L1181.28 -158.037C1181.25 -157.944 1181.2 -157.804 1181.14 -157.618C1181.01 -157.246 1180.82 -156.689 1180.55 -155.956C1180.02 -154.49 1179.2 -152.316 1178.04 -149.492C1175.71 -143.845 1172.03 -135.598 1166.61 -125.213C1155.77 -104.442 1137.96 -75.1182 1110.13 -40.9288C1054.48 27.4482 958.701 115.295 798.249 193.096C637.789 270.9 471.454 310.786 345.226 331.219C282.114 341.436 229.032 346.789 191.73 349.588C173.079 350.987 158.373 351.748 148.331 352.159C143.31 352.365 139.455 352.483 136.856 352.55C135.556 352.583 134.571 352.603 133.91 352.616C133.58 352.622 133.331 352.626 133.165 352.628L132.978 352.631L132.931 352.631L132.919 352.631C132.918 352.631 132.917 352.631 132.917 352.701C132.917 352.765 132.918 352.89 132.921 353.132C132.925 353.451 132.927 353.566 132.928 353.608L132.929 353.621L132.93 353.628L132.93 353.631C132.93 353.631 132.931 353.631 132.931 353.631L132.943 353.631L132.991 353.631L133.18 353.628C133.308 353.626 133.486 353.623 133.712 353.619L133.928 353.615C134.591 353.603 135.579 353.583 136.881 353.549C139.486 353.483 143.346 353.364 148.372 353.159C158.424 352.747 173.141 351.986 191.805 350.585C229.131 347.785 282.241 342.428 345.386 332.207C471.672 311.764 638.109 271.856 798.685 193.996C959.268 116.132 1055.16 28.194 1110.91 -40.2975C1138.78 -74.5424 1156.62 -103.924 1167.49 -124.75C1172.93 -135.163 1176.62 -143.437 1178.96 -149.111C1180.13 -151.949 1180.96 -154.136 1181.49 -155.615C1181.76 -156.355 1181.96 -156.917 1182.09 -157.296L1182.12 -157.395L1182.16 -157.52L1182.21 -157.658L1182.23 -157.725L1182.27 -157.834L1182.27 -157.862L1182.28 -157.869C1182.28 -157.87 1182.28 -157.871 1182.16 -157.908L1182.02 -157.955L1181.8 -158.024ZM1191.3 -148.92C1190.83 -149.072 1190.83 -149.071 1190.82 -149.07L1190.82 -149.064L1190.81 -149.038L1190.78 -148.934C1190.75 -148.841 1190.7 -148.701 1190.64 -148.514C1190.51 -148.142 1190.32 -147.586 1190.05 -146.853C1189.52 -145.386 1188.7 -143.212 1187.54 -140.389C1185.21 -134.741 1181.53 -126.494 1176.11 -116.109C1165.27 -95.3388 1147.46 -66.0147 1119.63 -31.8253C1063.98 36.5517 968.201 124.399 807.749 202.2C647.289 280.004 480.954 319.889 354.726 340.323C291.614 350.539 238.532 355.893 201.23 358.692C182.579 360.091 167.873 360.852 157.831 361.263C152.81 361.468 148.955 361.586 146.356 361.653C145.056 361.686 144.071 361.707 143.41 361.719C143.08 361.725 142.831 361.729 142.665 361.732L142.478 361.734L142.431 361.735L142.419 361.735C142.417 361.735 142.416 361.735 142.418 361.926C142.419 361.998 142.42 362.098 142.421 362.235C142.427 362.735 142.428 362.735 142.431 362.735L142.443 362.735L142.491 362.734L142.68 362.732C142.847 362.729 143.097 362.725 143.428 362.719C144.091 362.707 145.079 362.686 146.381 362.653C148.986 362.586 152.846 362.468 157.872 362.262C167.924 361.851 182.641 361.089 201.305 359.689C238.631 356.888 291.741 351.532 354.886 341.31C481.172 320.867 647.609 280.96 808.185 203.099C968.768 125.235 1064.66 37.2975 1120.41 -31.194C1148.28 -65.4389 1166.12 -94.8201 1176.99 -115.646C1182.43 -126.06 1186.12 -134.334 1188.46 -140.008C1189.63 -142.845 1190.46 -145.032 1190.99 -146.511C1191.26 -147.251 1191.46 -147.814 1191.59 -148.192C1191.62 -148.305 1191.66 -148.402 1191.68 -148.482L1191.73 -148.621L1191.77 -148.731L1191.77 -148.758L1191.78 -148.766C1191.78 -148.767 1191.78 -148.767 1191.74 -148.779C1191.7 -148.795 1191.58 -148.832 1191.3 -148.92Z" fill="url(#paint0_radial_138_1203)"/>
<defs>
<radialGradient id="paint0_radial_138_1203" cx="0" cy="0" r="1" gradientUnits="userSpaceOnUse" gradientTransform="translate(580.002 46.6736) rotate(48.9354) scale(235.191 446.043)">
<stop stop-color="#CE3640" stop-opacity="0.12"/>
<stop offset="0.59501" stop-color="#0F2D5A" stop-opacity="0.24"/>
<stop offset="0.998611" stop-color="#0F2D5A" stop-opacity="0"/>
</radialGradient>
</defs>
</svg>
